# xmcd
#
# Track frame offsets:
#	150
#	9688
#	22833
#	32498
#	42050
#	61323
#	70130
#	81988
#	90865
#	100385
#	108738
#	122383
#	134125
#
# Disc length: 1917 seconds
#
# Revision: 0
# Processed by: cddbd v1.4PL0 Copyright (c) Steve Scherf et al.
# Submitted via: dBpowerAMP V4.0
#
DISCID=a1077b0d
DTITLE=Maysa - Ando Só Numa Multidão de Amores
DYEAR=1900
DGENRE=Cabaret
TTITLE0=Molambo
TTITLE1=Yo Sin Ti
TTITLE2=Me Deixe So
TTITLE3=Chuvas de Verao
TTITLE4=Tres Lagrimas
TTITLE5=Assim na Terra como no Ceu
TTITLE6=Eu
TTITLE7=Suas Maos
TTITLE8=Bonita
TTITLE9=Resposta
TTITLE10=Que Eu Canse e Descanse
TTITLE11=As Praias Desertas
TTITLE12=Quando Chegares
EXTD=
EXTT0=
EXTT1=
EXTT2=
EXTT3=
EXTT4=
EXTT5=
EXTT6=
EXTT7=
EXTT8=
EXTT9=
EXTT10=
EXTT11=
EXTT12=
PLAYORDER=
